<?xml version="1.0" encoding="utf-8"?>
<svg version="1.1" xmlns="http://www.w3.org/2000/svg" xmlns:xlink="http://www.w3.org/1999/xlink" x="0px" y="0px"
	 viewBox="0 0 375 406" enable-background="new 0 0 375 406" xml:space="preserve">
<g>
	<defs>
		<rect id="SVGID_1_" width="375" height="406"/>
	</defs>
	<clipPath id="SVGID_2_">
		<use xlink:href="#SVGID_1_"  overflow="visible"/>
	</clipPath>
	<g clip-path="url(#SVGID_2_)">

			<linearGradient id="SVGID_3_" gradientUnits="userSpaceOnUse" x1="389.0021" y1="215.8291" x2="-111.6389" y2="248.6331" gradientTransform="matrix(1 0 0 -1 0 408)">
			<stop  offset="0" style="stop-color:#92A3FD"/>
			<stop  offset="1" style="stop-color:#9DCEFF"/>
		</linearGradient>
		<path fill="url(#SVGID_3_)" d="M375,236.9c0,0-72.07,162.99-183.9,168.6C79.27,411.11,0,350.51,0,350.51V-37h375V236.9z"/>
		<path fill="#AB8DA8" d="M141.3,316.41c-20.2,50.82-14.43,85.15-14.43,85.15c19.17,3.5,38.63,4.94,58.1,4.3
			c24.67-0.8,47.47-8.48,68.13-20.12c0.7-28.23-8.93-53.42-15.8-67.73C193.13,339.4,154.6,323.42,141.3,316.41z"/>
		<path fill="#FEF9EF" d="M147.23,302.73c-2.17,4.67-4.17,9.24-5.9,13.68c13.27,7.01,51.83,23.02,95.97,1.6
			c-3.77-7.84-6.73-12.41-6.73-12.41S174.4,244.48,147.23,302.73z"/>
		<path fill="#543753" d="M191.1,405.5v-17.58l15.27-10.61l-10.1,14.11L197.3,405L191.1,405.5z"/>
		<path fill="#FFEDE5" d="M118.53,192.63c0,0-1.53,0.57-1.8,16.12c-0.27,15.55-1.43,46.48-1.43,46.48s-14.1-13.11-15.13-19.72
			c-1.03-6.61-0.6-12.55-1.3-16.18c-0.7-3.64-0.83-13.58-0.53-15.45c0.3-1.87-4.43-2.17-5.73,0.6c-1.3,2.77-1.73,11.98-2.4,12.31
			c-0.67,0.33-8.3,1.03-9.03,2.7c-0.73,1.67,0.57,4.71-0.57,7.24c-1.13,2.53,0.1,4.34,0,6.27c-0.1,1.94-0.57,2.67,0.3,5.61
			c0.87,2.94,1.03,5.4,2.43,5.87l1.4,0.47l4.9,1.67c0,0,21,47.35,31.4,48.38c10.4,1.04,15.83-7.24,17.13-13.91
			c1.3-6.67,8.27-46.65,8.27-46.65L118.53,192.63z"/>
		<path fill="#E0855C" d="M130.33,225.52l11.53,35.07l4.57-26.19L130.33,225.52z"/>
		<path fill="#E0855C" d="M115.3,255.19c0,0,9.8,8.24,13.03,15.01c0,0-5.23-13.88-12.83-20.32L115.3,255.19z"/>
		<path fill="#E0855C" d="M86.37,244.27c0,0,10.23-0.27,11.07-0.9c0.83-0.63,0.87-3.64,0.43-4c0,0,0.83-4.37,0.07-5.5
			c0,0,0.3-3.24-0.03-5.14c0,0,1.7,9.74,1.5,11.28c-0.2,1.54,0.6,4.14-4,4.9C90.8,245.68,86.37,244.27,86.37,244.27z"/>
		<path fill="#472938" d="M97.93,233.93c-0.03,0-0.03,0-0.07,0c-0.17-0.03-0.3-0.2-0.27-0.37c0.43-2.7-0.27-7.94-0.27-7.98v-0.07
			v-0.07c0.3-1.17,0.93-4.47,0.07-5.47c-0.77-0.9-8.17-1.13-12.67-1.07c-0.17,0-0.33-0.13-0.33-0.33c0-0.2,0.13-0.33,0.33-0.33
			c2-0.03,11.97-0.1,13.17,1.3c1.2,1.4,0.27,5.31,0.1,6.01c0.07,0.63,0.67,5.44,0.23,8.11C98.23,233.83,98.07,233.93,97.93,233.93z"
			/>
		<path fill="#472938" d="M97.67,225.86C97.67,225.86,97.63,225.86,97.67,225.86l-10.73-0.5c-0.2,0-0.33-0.17-0.33-0.33
			c0-0.2,0.13-0.33,0.33-0.33l10.73,0.5c0.2,0,0.33,0.17,0.33,0.33C98,225.72,97.83,225.86,97.67,225.86z"/>
		<path fill="#472938" d="M97.83,239.7H87.27c-0.2,0-0.33-0.13-0.33-0.33c0-0.2,0.13-0.33,0.33-0.33h10.57
			c0.2,0,0.33,0.13,0.33,0.33C98.17,239.57,98.03,239.7,97.83,239.7z"/>
		<path fill="#472938" d="M98.03,232.43H85.9c-0.2,0-0.33-0.13-0.33-0.33c0-0.2,0.13-0.33,0.33-0.33h12.13
			c0.2,0,0.33,0.13,0.33,0.33C98.37,232.3,98.23,232.43,98.03,232.43z"/>
		<path fill="#3B2645" d="M278.97,176.38l20.2-0.77c0.87-0.03,1.6,0.63,1.63,1.5l1.57,41.71c0.03,0.87-0.63,1.6-1.5,1.63l-20.2,0.77
			c-0.87,0.03-1.6-0.63-1.63-1.5l-1.57-41.71C277.43,177.11,278.1,176.41,278.97,176.38z"/>
		<path fill="#FEF9EF" d="M280.6,219.85c-0.13,0-0.23-0.1-0.23-0.23l-1.57-41.71c0-0.07,0.03-0.13,0.07-0.17
			c0.03-0.03,0.1-0.07,0.17-0.07l20.2-0.77c0.13,0,0.23,0.1,0.23,0.23l1.57,41.71c0,0.13-0.1,0.23-0.23,0.23L280.6,219.85z"/>
		<path fill="#FFEDE5" d="M216.33,171.2c0,0,21.2,2.14,25.13,19.35c3.93,17.22,11.2,58.12,11.2,58.12s15.47-24.79,16.7-28.73
			c1.23-3.94,5.23-17.25,5.1-21.79c-0.13-4.54,4.3-1.3,4.3,4.1l0.67,17.88c0.03,0.6,0.53,1.07,1.13,1.03h0.03l20.47-1.54
			c0.7-0.03,1.2-0.63,1.17-1.34v-0.23c0,0-1.47-3.04-1.03-4.44c0.43-1.4,3.93-1.54,4.33-1.2c0.4,0.33,2.57,4.5,2.5,5.64
			c-0.07,1.13-2.6,4.67-4.27,5.21c-1.67,0.53-18.27,4.54-21.67,9.68s-18.27,50.15-30.33,53.62c-12.07,3.47-23.83-29.26-26.6-38.84
			C222.4,238.17,216.33,171.2,216.33,171.2z"/>
		<path fill="#E0855C" d="M221.67,224.29c1.3,11.04,2.6,20.32,3.5,23.42c1.3,4.47,4.57,14.05,8.93,22.59l1.33-62.89L221.67,224.29z"
			/>
		<path fill="#FFEDE5" d="M301.67,200.57c0,0,7.23,3.7,7.1,5.27c-0.13,1.57-1.5,4.37-2.9,4.24s-4.03-1.54-4.77-3.17
			C300.37,205.27,300,200.03,301.67,200.57z"/>
		<path fill="#FFEDE5" d="M302.03,206c0,0,7.23,3.7,7.1,5.27c-0.13,1.57-1.5,4.37-2.9,4.24c-1.4-0.13-4.03-1.54-4.77-3.17
			C300.73,210.71,300.37,205.47,302.03,206z"/>
		<path fill="#FFEDE5" d="M302.03,193.96c0,0,7.23,3.7,7.1,5.27c-0.13,1.57-1.5,4.37-2.9,4.24c-1.4-0.13-4.03-1.53-4.77-3.17
			C300.73,198.66,300.37,193.39,302.03,193.96z"/>
		<path fill="#472938" d="M246.13,261.93c-0.07,0-0.1,0-0.17-0.03c-0.17-0.07-0.23-0.3-0.13-0.43l6.53-12.91
			c0.07-0.17,0.3-0.23,0.43-0.13c0.17,0.07,0.23,0.3,0.13,0.43l-6.53,12.91C246.37,261.86,246.27,261.93,246.13,261.93z"/>
		<path fill="#FFEDE5" d="M152.5,280.24c0.03,10.84-5.27,22.46-5.27,22.46s36.7,20.62,83.3,2.87c0,0-5.7-14.68-4.97-30.03
			C187.9,268.53,152.5,280.24,152.5,280.24z"/>
		<path fill="#FFEDE5" d="M118.53,192.63c-2.73,4.1,7.8,24.52,17.87,45.18c9.17-20.52,3.8-45.44,0.7-56.15
			C130,184.38,121.3,188.42,118.53,192.63z"/>
		<path fill="#FEF9EF" d="M225.57,275.57c0.07-1.6,0.23-3.2,0.47-4.8c0.13-0.97,0.3-2,0.47-3.1c-29.9-8.18-65.5,1.17-75.53,4.14
			c0.97,3.3,1.53,6.17,1.53,8.44C152.5,280.24,187.9,268.53,225.57,275.57z"/>
		<path fill="#472938" d="M136.4,238.9c-0.13,0-0.23-0.07-0.3-0.2l-7.43-16.02c-0.07-0.17,0-0.37,0.17-0.43
			c0.17-0.07,0.37,0,0.43,0.17l7.43,16.02c0.07,0.17,0,0.37-0.17,0.43C136.5,238.9,136.43,238.9,136.4,238.9z"/>
		<path fill="#E0855C" d="M193.4,309.61c0.51,0,0.93-0.42,0.93-0.93c0-0.51-0.42-0.93-0.93-0.93c-0.52,0-0.93,0.42-0.93,0.93
			C192.47,309.19,192.88,309.61,193.4,309.61z"/>
		<path fill="#FFEDE5" d="M233.83,209.37c0-0.23,0-0.47,0-0.67c0-0.1,0-0.23,0-0.33c0-0.27,0-0.5-0.03-0.77c0-0.07,0-0.13,0-0.23
			c0-0.33-0.03-0.63-0.03-0.93v-0.2c0-0.23-0.03-0.5-0.03-0.73c0-0.1,0-0.2-0.03-0.3c0-0.2-0.03-0.4-0.03-0.57l-0.03-0.33
			c0-0.17-0.03-0.37-0.07-0.53c0-0.1-0.03-0.2-0.03-0.33c-0.03-0.2-0.03-0.37-0.07-0.57c0-0.1-0.03-0.17-0.03-0.27
			c-0.03-0.27-0.07-0.53-0.13-0.8c-2.6-15.82-17-30.63-17-30.63s5.6,22.26,7.4,24.86c6.57,9.54,10.23,15.28,9.77,22.89
			c0.03-0.4,0.07-0.77,0.1-1.17c0-0.1,0-0.2,0-0.3c0.03-0.3,0.03-0.6,0.07-0.87c0-0.1,0-0.23,0.03-0.33c0-0.27,0.03-0.53,0.03-0.83
			l0.03-0.33c0-0.3,0.03-0.57,0.03-0.83c0-0.1,0-0.17,0-0.27c0.03-0.73,0.07-1.47,0.07-2.2c0-0.1,0-0.17,0-0.27c0-0.27,0-0.53,0-0.8
			v-0.33c0-0.23,0-0.47,0-0.7V209.37z"/>
		<path fill="#AB8DA8" d="M223.7,196.06c-1.8-2.6-7.37-24.86-7.37-24.86h-4.23l-64.87,6.94c0,0-4.57,1.33-10.13,3.47
			c3.07,10.71,8.47,35.67-0.7,56.15c6.03,12.41,11.87,24.89,14.53,34.03c10.03-3,45.63-12.31,75.53-4.14
			c1.97-12.61,5.77-32.7,7-48.72C233.93,211.34,230.27,205.6,223.7,196.06z"/>
		<path fill="#472938" d="M158.1,254.18c-1.6,0-3.27-0.2-5.03-0.63c-0.17-0.03-0.3-0.23-0.23-0.4c0.03-0.17,0.23-0.3,0.4-0.23
			c6.33,1.6,11.47-0.23,16.87-2.14c5.13-1.84,10.43-3.7,17.23-2.94c13.73,1.54,36.1-2.17,36.33-2.2c0.2-0.03,0.37,0.1,0.4,0.27
			c0.03,0.17-0.1,0.37-0.27,0.4c-0.23,0.03-22.7,3.77-36.5,2.24c-6.63-0.73-11.87,1.1-16.93,2.9
			C166.3,252.82,162.43,254.18,158.1,254.18z"/>
		<path fill="#3B2645" d="M209.37,82.25c0,0,17.4,1.74,12.17,24.89c-5.23,23.16-0.07,22.12,4.47,34.37
			c4.53,12.25-19.17,4.14-19.17,4.14s12.07,18.08-52.07,10.28c-52.9-6.44-17.6-34.03-17.6-34.03s-15.9,2.1,3.13-14.71
			C153.7,95.33,160.83,51.79,209.37,82.25z"/>
		<path fill="#FFEDE5" d="M197.83,146.31c0,0-5.37,18.85,2,22.35c5.67,2.7,12.27,2.54,12.27,2.54s-2.27,49.98-30.27,50.52
			s-34.6-43.58-34.6-43.58s11.4-4,14.8-11.85c3.4-7.84,3.57-18.82,3.57-18.82L197.83,146.31z"/>
		<path fill="#E0855C" d="M211.29,132.06c2.85-4.95,2.79-10.33-0.15-12.03c-2.93-1.69-7.63,0.94-10.48,5.89
			c-2.85,4.95-2.79,10.33,0.15,12.03C203.74,139.64,208.43,137.01,211.29,132.06z"/>
		<path fill="#472938" d="M204.3,132.43c-0.1,0-0.17-0.03-0.23-0.1c-0.13-0.13-0.13-0.33,0-0.47l5.03-4.74
			c0.13-0.13,0.33-0.13,0.47,0c0.13,0.13,0.13,0.33,0,0.47l-5.03,4.74C204.47,132.43,204.4,132.43,204.3,132.43z"/>
		<path fill="#FFEDE5" d="M158.84,134.19c3.3-0.78,4.9-5.92,3.59-11.48c-1.31-5.56-5.05-9.43-8.35-8.65
			c-3.3,0.78-4.9,5.92-3.59,11.48C151.8,131.1,155.54,134.97,158.84,134.19z"/>
		<path fill="#E0855C" d="M196.17,162.4c-1-6.74,1.67-16.12,1.67-16.12l-32.27,1.2c0,0-0.03,2.44-0.43,5.84
			C165.13,153.35,181.23,172.87,196.17,162.4z"/>
		<path fill="#472938" d="M157.97,127.36c-0.1,0-0.2-0.07-0.27-0.17l-3.2-4.9c-0.1-0.17-0.07-0.37,0.1-0.47
			c0.17-0.1,0.37-0.07,0.47,0.1l3.2,4.91c0.1,0.17,0.07,0.37-0.1,0.47C158.1,127.36,158.03,127.36,157.97,127.36z"/>
		<path fill="#FFEDE5" d="M160.1,92.16c0,0-11.47,61.96,15.47,68.4C202.5,167,212.1,109.21,211.4,97.2
			C210.7,85.19,164.1,81.55,160.1,92.16z"/>
		<path fill="#472938" d="M195.93,120.49c0.87,0.17,1.43,1,1.3,1.87l-0.17,0.97c-0.17,0.87-1,1.44-1.87,1.3
			c-0.87-0.17-1.43-1-1.3-1.87l0.17-0.97C194.23,120.92,195.07,120.32,195.93,120.49z"/>
		<path fill="#472938" d="M170.83,117.68c0.9,0,1.6,0.7,1.6,1.6v0.97c0,0.87-0.7,1.6-1.6,1.6c-0.87,0-1.6-0.7-1.6-1.6v-0.97
			C169.23,118.39,169.93,117.68,170.83,117.68z"/>
		<path fill="#472938" d="M201.8,118.82c0,0-1.2-1.8-4.67-2.4c-3.47-0.6-4.57-0.4-4.6-1.5C192.5,113.81,200.27,112.11,201.8,118.82z
			"/>
		<path fill="#472938" d="M165.8,114.25c0,0,1.73-1.3,5.2-0.73c3.47,0.6,4.43,1.13,4.83,0.1
			C176.23,112.58,169.47,108.41,165.8,114.25z"/>
		<path fill="#FFFFFF" d="M172.4,137.87l14.4,1.63c0,0-2.23,9.74-8.6,8.61C171.87,147.01,172.4,137.87,172.4,137.87z"/>
		<path fill="#472938" d="M181.93,135.47c-1,0-2.1-0.27-3.1-0.73c-0.17-0.07-0.23-0.27-0.17-0.43c0.07-0.17,0.27-0.23,0.43-0.17
			c1.47,0.7,3.1,0.87,4.2,0.43c0.47-0.17,0.77-0.43,0.9-0.73c0.43-1.04,0.27-4.24,0.07-7.94l-0.07-1.3
			c-0.37-6.84,3.73-8.14,3.9-8.21c0.17-0.07,0.37,0.03,0.4,0.23c0.07,0.17-0.03,0.37-0.23,0.4c-0.17,0.03-3.77,1.24-3.43,7.54
			l0.07,1.3c0.2,3.94,0.4,7.07-0.13,8.24c-0.2,0.47-0.63,0.87-1.27,1.1C183.1,135.4,182.53,135.47,181.93,135.47z"/>
		<path fill="#3B2645" d="M206.83,126.63c0,0,2.17-16.72-5.03-25.86c0,0-6.1,11.55-16.1,7.54c0,0-13.73,11.91-27.73,8.44
			s-9.03-36.24,11.27-37.64C189.53,77.71,230.83,85.89,206.83,126.63z"/>
	</g>
</g>
</svg>
