<?xml version="1.0" encoding="utf-8"?>
<!-- Generator: Adobe Illustrator 22.1.0, SVG Export Plug-In . SVG Version: 6.00 Build 0)  -->
<svg version="1.1" id="Слой_1" xmlns="http://www.w3.org/2000/svg" xmlns:xlink="http://www.w3.org/1999/xlink" x="0px" y="0px"
	 viewBox="0 0 375 422" enable-background="new 0 0 375 422" xml:space="preserve">
<g>
	<defs>
		<rect id="SVGID_1_" width="375" height="422"/>
	</defs>
	<clipPath id="SVGID_2_">
		<use xlink:href="#SVGID_1_"  overflow="visible"/>
	</clipPath>
	<g clip-path="url(#SVGID_2_)">
		
			<linearGradient id="SVGID_3_" gradientUnits="userSpaceOnUse" x1="389.1718" y1="260.0876" x2="-110.5962" y2="298.9506" gradientTransform="matrix(1 0 0 -1 0 424)">
			<stop  offset="0" style="stop-color:#92A3FD"/>
			<stop  offset="1" style="stop-color:#9DCEFF"/>
		</linearGradient>
		<path fill="url(#SVGID_3_)" d="M0,118.6c0,0,13.83-42.16,42.73-31.22c40.3,15.23,143.6,258.78,252,258.78
			c55.57,0,80.27-42.56,80.27-42.56V-27H0V118.6z"/>
		<path fill="#3B2645" d="M167.6,146.83c0,0,2.47-16.79,21.37-16.79s28.07,21.48,32.33,34.08c4.27,12.6,15.27,24.47,29.6,31.49
			c14.33,7.01,25.17,14.56,23.33,30.46c0,0,30.67,23.94-27.77,28.36c-58.43,4.42-87.13-32.25-83.6-51.14
			C166.4,184.4,143.6,158.8,167.6,146.83z"/>
		<path fill="#FFEDE5" d="M202.97,187.13c0,0-2.67,25.8,8.67,28.06c0,0,4.7,46.32-21.73,46.32s-23.73-44.92-23.73-44.92
			s11.27-2.96,10.37-27.86C175.63,163.82,203.33,169.8,202.97,187.13z"/>
		<path fill="#E0855C" d="M195.1,189.42c2.23-8.48-9.27-10.21-17-10.44c-1.1,2.49-1.73,5.72-1.6,9.74c0.17,3.52,0,7.08-0.43,10.61
			C180.47,199.66,192.4,199.63,195.1,189.42z"/>
		<path fill="#E0855C" d="M173.32,181.51c2.38-0.82,3.08-5.08,1.54-9.53c-1.53-4.45-4.71-7.39-7.09-6.57
			c-2.39,0.82-3.08,5.09-1.54,9.53C167.76,179.38,170.93,182.33,173.32,181.51z"/>
		<path fill="#E0855C" d="M213.02,174.9c1.53-4.45,0.84-8.71-1.54-9.53c-2.38-0.82-5.56,2.12-7.09,6.57s-0.84,8.71,1.54,9.53
			C208.31,182.29,211.48,179.35,213.02,174.9z"/>
		<path fill="#FFEDE5" d="M169.03,150.98c0,0-1.83,44.52,19.3,44.62c16.43,0.07,21.13-19.92,21.4-42.43
			C210,130.67,169.3,133.69,169.03,150.98z"/>
		<path fill="#472938" d="M190,182.57c-3.53,0-6.63-2.13-6.67-2.16c-0.17-0.1-0.2-0.3-0.07-0.47c0.1-0.17,0.3-0.2,0.47-0.07
			c0.07,0.03,6.07,4.12,10.5,0.63c0.13-0.1,0.37-0.1,0.47,0.07c0.1,0.17,0.1,0.37-0.07,0.47C193.13,182.17,191.53,182.57,190,182.57
			z"/>
		<path fill="#472938" d="M176.27,164.15c0,0,2.77,1.76,7.43,0.33C183.7,164.45,179.73,168.51,176.27,164.15z"/>
		<path fill="#472938" d="M202.8,164.52c0,0-2.77,1.76-7.43,0.33C195.37,164.85,199.33,168.91,202.8,164.52z"/>
		<path fill="#472938" d="M174.67,158.73c0,0,3.5-3.86,8.6-2.66c2.6,0.6,1.6-2.59-3.1-2.39
			C175.47,153.88,174.67,158.73,174.67,158.73z"/>
		<path fill="#472938" d="M204.67,158.73c0,0-3.5-3.86-8.6-2.66c-2.6,0.6-1.6-2.59,3.1-2.39
			C203.87,153.88,204.67,158.73,204.67,158.73z"/>
		<path fill="#472938" d="M189.2,175.12c-1,0-3.13-0.73-3.87-1.46c-0.27-0.27-0.37-0.53-0.33-0.8c0.07-0.4,0.37-1.66,0.8-3.26
			c0.57-2.29,1.3-5.12,1.53-6.52c0.23-1.33,0-2.73-0.63-3.92c-0.1-0.17-0.03-0.36,0.13-0.46c0.17-0.1,0.37-0.03,0.47,0.13
			c0.7,1.33,0.97,2.86,0.7,4.36c-0.23,1.43-0.97,4.29-1.53,6.58c-0.4,1.53-0.73,2.86-0.77,3.19c0,0.03,0.03,0.1,0.13,0.23
			c0.7,0.7,2.9,1.36,3.53,1.26c0.83-0.13,2.57-0.93,3.17-1.63c0.13-0.13,0.33-0.13,0.47-0.03c0.13,0.13,0.13,0.33,0.03,0.46
			c-0.73,0.8-2.6,1.7-3.57,1.83C189.33,175.12,189.27,175.12,189.2,175.12z"/>
		<path fill="#3B2645" d="M169.33,162.39c0,0,1.33-10.61,4.63-14.5c0,0,5.53-2.46,14.33,2.76c8.8,5.22,14.97,9.61,23.13,8.31
			c0,0,0.77-25.3-20.33-23.94C170,136.39,165.67,147.39,169.33,162.39z"/>
		<path fill="#FFEDE5" d="M308.77,318.73c-0.33-0.53-1.33,0.37-1.33,0.37s-1.03-1.16-3.83-0.33c-2.8,0.83-11.1,7.95-11.1,7.95
			c-3.73-0.07-9.83,3.59-9.83,3.59s-4.6-1.89-8.77-8.15s-8.7-9.31-8.7-9.31s-9.77-39.17-16.37-63.61
			c-6.7,2.83-15.4,13.96-21.6,22.94c0.13,4.22,0.27,6.92,0.27,6.92s21.73,57.52,24.53,59.25c2.8,1.73,34.77,5.58,35.1,5.35
			c0.33-0.23,3.27,0.53,4.47,0c1.2-0.53,2.67,0.33,4.13-0.67c1.47-1,4,0.53,5.03-0.43c1.03-0.96,2.83-0.57,4.03-1.13
			c1.2-0.57,7.9-10.01,8.03-11.7C312.97,328.07,309.1,319.26,308.77,318.73z"/>
		<path fill="#E0855C" d="M232.83,260.71c0,0,11.37,19.35,2.37,38.4l-7.73-20.08L232.83,260.71z"/>
		<path fill="#AB8DA8" d="M248.8,249.17c-2.37-8.78-4.33-15.66-5.3-18.15c-3.67-9.57-10.43-10.01-10.43-10.01
			c-6.67,0.1-6.33,35.74-5.87,51.1C233.4,263.13,242.1,252.03,248.8,249.17z"/>
		<path fill="#472938" d="M257.8,314.87c-0.13,0-0.27-0.1-0.33-0.23c-0.03-0.17,0.07-0.37,0.23-0.4l6.53-1.73
			c0.17-0.03,0.37,0.07,0.4,0.23c0.03,0.17-0.07,0.37-0.23,0.4l-6.53,1.73C257.87,314.87,257.83,314.87,257.8,314.87z"/>
		<path fill="#472938" d="M290.13,337.51c-0.17,0-0.33-0.13-0.33-0.33c-0.17-4.06-4.97-4.22-5.17-4.22c-0.2,0-0.33-0.17-0.33-0.33
			c0-0.2,0.17-0.33,0.33-0.33c0.07,0,5.6,0.2,5.8,4.85C290.5,337.35,290.33,337.51,290.13,337.51
			C290.17,337.51,290.17,337.51,290.13,337.51z"/>
		<path fill="#472938" d="M288.67,340.54c-0.03,0-0.1,0-0.13-0.03c-0.17-0.07-0.23-0.27-0.17-0.43c0.4-0.86,4-8.64,5.5-9.64
			c1.23-0.83,2.73-0.57,3.33-0.03c0.4,0.33,0.27,0.66,0.23,0.76c-0.17,0.37-2.1,5.15-3.07,7.61c-0.07,0.17-0.27,0.27-0.43,0.2
			c-0.17-0.07-0.27-0.27-0.2-0.43c0.1-0.3,2.7-6.75,3.07-7.58c-0.07-0.07-0.23-0.2-0.57-0.27c-0.27-0.07-1.13-0.23-2,0.33
			c-1.13,0.76-4.2,7.02-5.3,9.38C288.9,340.47,288.8,340.54,288.67,340.54z"/>
		<path fill="#472938" d="M299.2,338.05c-0.2,0-0.33-0.13-0.33-0.33c0-0.07,0-0.07,0.93-3.36c0.77-2.69,2-7.08,2.13-7.78
			c-0.2-0.2-1.13-0.6-1.77-0.4c-0.5,0.17-2.03,2.43-3.17,4.42c-0.1,0.17-0.3,0.2-0.47,0.13c-0.17-0.1-0.2-0.3-0.13-0.46
			c0.6-1.03,2.6-4.42,3.53-4.76c0.8-0.27,1.83,0.1,2.3,0.43c0.23,0.17,0.37,0.37,0.37,0.53c0,0.2-0.47,1.9-2.17,8.01
			c-0.43,1.56-0.87,3.06-0.9,3.23C299.53,337.91,299.37,338.05,299.2,338.05z"/>
		<path fill="#472938" d="M303.9,337.35c-0.03,0-0.03,0-0.07,0c-0.17-0.03-0.3-0.23-0.27-0.4c1.17-5.19,2.87-13.1,2.9-13.96
			c-0.13-0.2-0.73-0.53-1.77-0.53c-0.57,0-2,1.9-2.97,3.66c-0.1,0.17-0.3,0.23-0.47,0.13c-0.17-0.1-0.23-0.3-0.13-0.47
			c0.53-0.93,2.33-3.99,3.57-3.99c1.17,0,2.13,0.4,2.4,0.96c0.07,0.13,0.23,0.5-2.9,14.33C304.2,337.25,304.07,337.35,303.9,337.35z
			"/>
		<path fill="#472938" d="M306.4,322.78c-0.13,0-0.27-0.1-0.33-0.23c-0.53-1.7,1.03-3.59,1.1-3.66c0.13-0.13,0.33-0.17,0.47-0.03
			c0.13,0.13,0.17,0.33,0.03,0.47c0,0.03-1.4,1.7-0.97,3.06c0.07,0.17-0.03,0.36-0.23,0.43
			C306.47,322.78,306.43,322.78,306.4,322.78z"/>
		<path fill="#472938" d="M304.63,334.12c-0.07,0-0.13-0.03-0.17-0.07c-0.17-0.1-0.2-0.3-0.1-0.46l2.73-4.12l-0.8-4.99
			c-0.03-0.17,0.1-0.37,0.27-0.37c0.17-0.03,0.37,0.1,0.37,0.27l0.87,5.25l-2.87,4.36C304.83,334.05,304.73,334.12,304.63,334.12z"
			/>
		<path fill="#FFEDE5" d="M73.47,324.28c0.3-0.53,1.33,0.3,1.33,0.3s1-1.2,3.83-0.46c2.83,0.73,11.4,7.48,11.4,7.48
			c3.7-0.2,10,3.19,10,3.19s4.53-2.1,8.47-8.51s8.33-9.68,8.33-9.68s8.17-39.5,13.8-64.24c6.8,2.56,15.93,13.33,22.5,22.04
			c0.03,4.22,0.03,6.92,0.03,6.92s-19.4,58.32-22.13,60.18c-2.73,1.86-34.53,6.95-34.83,6.75c-0.3-0.2-3.23,0.67-4.47,0.17
			c-1.23-0.5-2.63,0.47-4.17-0.5c-1.53-0.96-3.97,0.66-5.07-0.23c-1.1-0.9-2.83-0.47-4.1-0.96c-1.27-0.5-8.3-9.67-8.5-11.37
			C69.7,333.66,73.17,324.81,73.47,324.28z"/>
		<path fill="#E0855C" d="M147.03,263.3c0,0-10.57,19.82-0.83,38.47l6.9-20.38L147.03,263.3z"/>
		<path fill="#AB8DA8" d="M130.6,252.4c2-8.85,3.7-15.79,4.57-18.35c3.27-9.71,10.03-10.44,10.03-10.44
			c6.67-0.17,7.73,35.48,7.9,50.84C146.53,265.76,137.4,254.99,130.6,252.4z"/>
		<path fill="#472938" d="M124.23,318.39c-0.03,0-0.03,0-0.07,0l-6.6-1.46c-0.17-0.03-0.3-0.23-0.27-0.4
			c0.03-0.17,0.23-0.3,0.4-0.27l6.6,1.46c0.17,0.03,0.3,0.23,0.27,0.4C124.53,318.3,124.37,318.39,124.23,318.39z"/>
		<path fill="#472938" d="M92.8,342.3c-0.2,0-0.33-0.17-0.33-0.33c0.03-4.69,5.53-5.09,5.6-5.09c0.17,0,0.33,0.13,0.37,0.3
			c0,0.2-0.13,0.33-0.3,0.36c-0.2,0-4.97,0.37-4.97,4.42C93.13,342.17,93,342.3,92.8,342.3z"/>
		<path fill="#472938" d="M94.43,345.26c-0.13,0-0.23-0.07-0.3-0.17c-1.17-2.29-4.5-8.45-5.67-9.18c-0.9-0.53-1.77-0.33-2.03-0.27
			c-0.3,0.1-0.47,0.23-0.53,0.3c0.4,0.83,3.23,7.18,3.37,7.48c0.07,0.17,0,0.36-0.17,0.43c-0.17,0.07-0.37,0-0.43-0.17
			c-1.1-2.43-3.2-7.15-3.37-7.51c-0.13-0.23-0.03-0.53,0.2-0.76c0.57-0.53,2.07-0.87,3.33-0.1c1.57,0.93,5.47,8.58,5.9,9.44
			c0.07,0.17,0.03,0.37-0.13,0.43C94.53,345.26,94.47,345.26,94.43,345.26z"/>
		<path fill="#472938" d="M83.77,343.17c-0.17,0-0.3-0.1-0.33-0.27c-0.03-0.17-0.47-1.5-0.97-3.06c-2-6.15-2.53-7.88-2.53-8.08
			c0-0.2,0.1-0.37,0.33-0.53c0.47-0.37,1.47-0.77,2.3-0.53c0.97,0.27,3.1,3.59,3.73,4.59c0.1,0.17,0.03,0.36-0.1,0.46
			c-0.17,0.1-0.37,0.03-0.47-0.1c-1.23-1.96-2.87-4.16-3.33-4.29c-0.67-0.2-1.57,0.27-1.77,0.47c0.17,0.6,1.6,5.12,2.5,7.85
			c1,3.09,1,3.09,1,3.16C84.13,343,83.97,343.17,83.77,343.17C83.8,343.17,83.8,343.17,83.77,343.17z"/>
		<path fill="#472938" d="M79.07,342.7c-0.13,0-0.27-0.1-0.33-0.23c-3.67-13.73-3.5-14.1-3.47-14.23c0.23-0.6,1.17-1.03,2.37-1.06
			h0.03c1.23,0,3.13,2.96,3.7,3.86c0.1,0.17,0.03,0.36-0.1,0.46c-0.17,0.1-0.37,0.03-0.47-0.1c-1.03-1.69-2.53-3.56-3.1-3.56
			c-1,0.03-1.6,0.4-1.73,0.6c0.07,0.86,2.1,8.71,3.47,13.83c0.03,0.17-0.07,0.37-0.23,0.4C79.1,342.67,79.07,342.7,79.07,342.7z"/>
		<path fill="#472938" d="M76,328.27c-0.03,0-0.07,0-0.1,0c-0.17-0.03-0.3-0.23-0.23-0.4c0.37-1.4-1.07-2.99-1.1-3.03
			c-0.13-0.13-0.1-0.33,0.03-0.46c0.13-0.13,0.33-0.1,0.47,0.03c0.07,0.07,1.7,1.9,1.23,3.62C76.27,328.17,76.13,328.27,76,328.27z"
			/>
		<path fill="#472938" d="M78.2,339.48c-0.1,0-0.2-0.03-0.27-0.13l-3.03-4.22l0.63-5.29c0.03-0.17,0.2-0.3,0.37-0.3
			c0.17,0.03,0.3,0.2,0.3,0.37l-0.6,5.02l2.9,4.02c0.1,0.13,0.07,0.37-0.07,0.46C78.33,339.48,78.27,339.48,78.2,339.48z"/>
		<path fill="#AB8DA8" d="M211.6,215.19l21.47,5.82c0,0-2.6,34.61,1.83,41.76c4.43,7.15,1.97,23.41-3.4,31.49
			c0,0-8.6,27.6-6.27,34.08c2.33,6.48,10.17,20.82,10.17,20.82s-34.97,17.69-85.57,1.96c0,0,10.03-21.08,8.47-29.16
			c-1.57-8.08-12.4-30.59-12.27-41.23c0.13-10.64,3.53-39.03-1.43-56.99l21.47-7.15c0,0,0.37,42.16,24.8,42.16
			C215.3,258.74,211.6,215.19,211.6,215.19z"/>
		<path fill="#543753" d="M231.53,294.26c0,0-2.67,5.32-19.6,7.55c0,0,16.3,1.23,14.67,11.01L231.53,294.26z"/>
		<path fill="#543753" d="M148.37,292.76c0,0,4,7.48,22.1,9.18c0,0-19.83-2.99-16.13,7.85L148.37,292.76z"/>
		<path fill="#472938" d="M146.13,282.58c-0.17,0-0.33-0.13-0.33-0.3c-0.03-0.57-0.07-1.06-0.03-1.56c0.03-2.39,0.23-5.65,0.43-9.44
			c0.3-5.19,0.67-11.64,0.77-18.25c0-0.2,0.13-0.33,0.33-0.33s0.33,0.17,0.33,0.33c-0.1,6.62-0.47,13.1-0.77,18.29
			c-0.23,3.79-0.4,7.05-0.43,9.44c0,0.47,0,0.96,0.03,1.5C146.47,282.39,146.33,282.55,146.13,282.58z"/>
		<path fill="#472938" d="M234.9,263.1c-0.1,0-0.23-0.07-0.3-0.17c-1.47-2.36-2.33-7.78-2.57-16.09c0-0.2,0.13-0.33,0.33-0.33
			c0.17,0,0.33,0.13,0.33,0.33c0.23,8.21,1.07,13.53,2.47,15.76c0.1,0.17,0.03,0.37-0.1,0.47
			C235.03,263.07,234.97,263.1,234.9,263.1z"/>
		<path fill="#3B2645" d="M151,348.65c0,0,18.83,7.15,40.87,6.38c22.03-0.77,66.13-16.66,86.73-13.4c20.6,3.26,19.27,12,18.57,16.03
			c-0.7,4.02-43.47,64.37-81.03,64.37h-57.57c0,0-70.73-44.45-73.03-57.29c-2.3-12.83-0.63-20.51,19.1-20.88
			C124.37,343.5,145.7,346.92,151,348.65z"/>
		<path fill="#FFEDE5" d="M191.13,368.24c0,0,28.13-11.67,51.63-15.69c0,0,15.13,23.41,10.7,43.19
			C253.43,395.73,199.63,383.96,191.13,368.24z"/>
		<path fill="#E0855C" d="M191.13,368.24c0,0,68.07,8.88,62.3,27.5C247.67,414.35,191.13,368.24,191.13,368.24z"/>
		<path fill="#FFEDE5" d="M221.73,401.92c0,0-69.77,5.99-85.07,9.11c-15.3,3.13-30.8,1.73-40.27,5.02
			c-9.47,3.29-14.7,5.82-15.83,5.95c-1.13,0.13-3.73-14.53,1.03-19.72c0,0-1.47-5.29,5.2-9.38c6.67-4.09,17.73,1.3,21.83,0
			c4.1-1.3,7.03-2.49,11.4-1.56c4.37,0.93,15.03,3.56,15.03,3.56S190,360.09,221.73,401.92z"/>
		<path fill="#E0855C" d="M135.1,394.9l41.43,11.24l45.2-4.22c0,0-20.6-21.15-49.03-19.18C144.27,384.69,135.1,394.9,135.1,394.9z"
			/>
		<path fill="#FFEDE5" d="M149.53,353.11c0,0,21.4,4.32,52.33,20.48c30.93,16.16,56.53,9.54,65.57,12.67
			c9.03,3.13,26.17,0.7,28.97,3.13c2.8,2.43,4.63,6.68,2.97,8.51c0,0,7.47,17.09,6.77,18.22c-0.7,1.13-3.3,1.03-4.53,0.77
			s-12.1-5.65-24.6-7.88c-12.5-2.23-46.97-7.02-74.43-8.41c-27.47-1.4-67.47-4.16-67.47-4.16S136.03,362.82,149.53,353.11z"/>
		<path fill="#472938" d="M297.1,398.59c-1.07,0-2.5-0.2-4.33-0.83c-0.17-0.07-0.27-0.27-0.2-0.43c0.07-0.17,0.27-0.27,0.43-0.2
			c4.13,1.46,6.13,0.47,6.17,0.47c0.17-0.1,0.37-0.03,0.43,0.13c0.1,0.17,0.03,0.37-0.13,0.43
			C299.43,398.16,298.67,398.59,297.1,398.59z"/>
		<path fill="#472938" d="M84.97,403.31c-2.33,0-3.47-0.73-3.53-0.76c-0.17-0.1-0.2-0.3-0.1-0.46c0.1-0.17,0.3-0.2,0.47-0.1
			c0,0,1.2,0.73,3.53,0.63c2.43-0.07,5.07-1.26,5.1-1.26c0.17-0.07,0.37,0,0.43,0.17c0.07,0.17,0,0.37-0.17,0.43
			c-0.1,0.07-2.8,1.23-5.33,1.33C85.23,403.31,85.1,403.31,84.97,403.31z"/>
	</g>
</g>
</svg>
