<?xml version="1.0" encoding="utf-8"?>
<!-- Generator: Adobe Illustrator 22.1.0, SVG Export Plug-In . SVG Version: 6.00 Build 0)  -->
<svg version="1.1" id="Слой_1" xmlns="http://www.w3.org/2000/svg" xmlns:xlink="http://www.w3.org/1999/xlink" x="0px" y="0px"
	 viewBox="0 0 375 437" enable-background="new 0 0 375 437" xml:space="preserve">
<linearGradient id="SVGID_1_" gradientUnits="userSpaceOnUse" x1="389.0816" y1="214.034" x2="-111.5214" y2="247.1241" gradientTransform="matrix(1 0 0 -1 0 438)">
	<stop  offset="0" style="stop-color:#92A3FD"/>
	<stop  offset="1" style="stop-color:#9DCEFF"/>
</linearGradient>
<path fill="url(#SVGID_1_)" d="M0,208.1c0,0,22.4,3.54,45.1,85.84C67.8,376.24,130.8,437,212.97,437
	C295.13,437,375,322.52,375,248.07V-2H0V208.1z"/>
<path fill="#FFEDE5" d="M214.37,157.65l4.87,38.66l-45.27,2.37v-28.61L214.37,157.65z"/>
<path fill="#E0855C" d="M173.97,188.94c0,0,28.3,14.06,36.3-30.01l-36.3,11.15V188.94z"/>
<path fill="#E0855C" d="M166.92,151.03c3.26-0.98,4.46-6.58,2.68-12.49c-1.78-5.91-5.87-9.91-9.13-8.93
	c-3.26,0.99-4.46,6.58-2.68,12.49C159.57,148.02,163.66,152.01,166.92,151.03z"/>
<path fill="#FFEDE5" d="M161.87,123.6c0,0,0.87,60.96,27.3,62.9c26.43,1.94,28.53-47.21,28.7-62.9
	c0.17-15.69-16.53-20.2-31.47-20.03C171.47,103.74,162.57,111.41,161.87,123.6z"/>
<path fill="#3B2645" d="M216.73,137.22c0,0-6.73-9.35-6.5-20.6c0,0-22.87,10.99-38.03,2.3c0,0-9.07,5.64-9.47,17.53l-3.1-6.48
	c0,0-1.67-13.49-0.73-16.66c0.57-1.9,1.9-3.51,3.67-4.37c0,0-7.7-17.06,11.1-23.84c0,0,0.07,4.11,7.57,3.54
	c7.5-0.57,42.23-2.67,39.47,15.89C220.67,104.5,228.4,116.62,216.73,137.22z"/>
<path fill="#FFEDE5" d="M224.57,138.87c1.63-5.96,0.3-11.52-2.99-12.42c-3.28-0.9-7.27,3.19-8.91,9.15
	c-1.64,5.96-0.3,11.52,2.98,12.42C218.95,148.92,222.94,144.82,224.57,138.87z"/>
<path fill="#472938" d="M216.73,141.33c-0.03,0-0.1,0-0.13-0.03c-0.17-0.07-0.23-0.27-0.17-0.43l2.93-6.08
	c0.07-0.17,0.27-0.23,0.43-0.17c0.17,0.07,0.23,0.27,0.17,0.43l-2.93,6.08C216.97,141.26,216.87,141.33,216.73,141.33z"/>
<path fill="#472938" d="M188.13,157.72c-1.63,0-4.8-0.87-5.53-2.2c-0.5-0.94,0.5-6.18,2.43-14.96c0.33-1.57,0.63-2.81,0.73-3.41
	c0.4-2.2-0.83-2.8-0.9-2.8c-0.17-0.07-0.23-0.27-0.17-0.43c0.07-0.17,0.27-0.23,0.43-0.17c0.07,0.03,1.77,0.8,1.27,3.54
	c-0.1,0.6-0.37,1.84-0.73,3.44c-0.9,4.07-3,13.62-2.5,14.49c0.6,1.1,4.33,2.1,5.43,1.8c1.1-0.3,3.27-1.9,3.3-1.9
	c0.13-0.1,0.37-0.07,0.47,0.07c0.1,0.13,0.07,0.37-0.07,0.47c-0.1,0.07-2.3,1.67-3.5,2C188.6,157.69,188.4,157.72,188.13,157.72z"/>
<path fill="#472938" d="M188.8,167.54c-3,0-5.33-0.74-5.37-0.74c-0.17-0.07-0.27-0.23-0.2-0.43c0.07-0.17,0.23-0.27,0.43-0.2
	c0.1,0.03,11.43,3.54,15.7-5.31c0.07-0.17,0.27-0.23,0.43-0.17c0.17,0.07,0.23,0.27,0.17,0.43
	C197.4,166.37,192.57,167.54,188.8,167.54z"/>
<path fill="#472938" d="M201.17,135.32c1.07,0,1.93,0.87,1.93,1.94v1.44c0,1.07-0.87,1.94-1.93,1.94c-1.07,0-1.93-0.87-1.93-1.94
	v-1.44C199.23,136.19,200.07,135.32,201.17,135.32z"/>
<path fill="#472938" d="M175.13,136.65c1.07-0.1,2,0.67,2.1,1.74l0.13,1.43c0.1,1.07-0.67,2-1.73,2.1c-1.07,0.1-2-0.67-2.1-1.74
	l-0.13-1.43C173.3,137.69,174.07,136.76,175.13,136.65z"/>
<path fill="#472938" d="M207.8,129.14c-2.33-1.33-5.1-1.53-7.6-0.57c-4.17,1.67-5.4,0.53-5.67-0.03c-0.27-0.57,2.53-3.34,8.13-3.1
	C206.5,125.57,207.8,129.14,207.8,129.14z"/>
<path fill="#472938" d="M167,132.21c2.07-1.7,4.8-2.34,7.4-1.8c4.4,0.97,5.4-0.33,5.57-0.93c0.17-0.6-3.03-2.87-8.53-1.77
	C167.7,128.51,167,132.21,167,132.21z"/>
<path fill="#AB8DA8" d="M271.77,215.91l-21.83-8.15c-56.97,17.86-81.6,3.91-91.13-5.74c0,0-34.57,4.88-39.17,8.68
	c-4.6,3.81,8.53,120.02,9.2,145.46c0.43,16.23-1.6,39.8-3.13,54.69c25.2,16.59,54.73,26.11,87.27,26.11
	c19.77,0,39.43-6.64,57.87-17.76c-3.1-25.91-9.57-80.03-9.83-87.81C260.67,321.15,271.77,215.91,271.77,215.91z"/>
<path fill="#FFEDE5" d="M173.97,198.69l-15.17,3.34c9.53,9.65,34.17,23.61,91.17,5.78l-30.73-11.49L173.97,198.69z"/>
<path fill="#3B2645" d="M262.4,310.6c0,0-14.77-71.08-24.27-99.46c-1.33-4.01-2.57-7.15-3.63-9.12l-12.77-4.77
	c0,0,1.83,6.88,4.23,16.59c4.47,17.93,10.93,45.47,11.73,57.09h-68.37v-71.25l-11.67,2.34c0,0,0,0.1-0.03,0.27
	c-0.93,5.61-18.03,104.5-30.73,126.5c0,0,1.77,21.87,1.9,27.38c0.43,16.23-1.6,39.8-3.13,54.69c25.2,16.59,54.73,26.11,87.27,26.11
	c19.77,0,39.43-6.64,57.87-17.76c-3.1-25.91-9.57-80.03-9.83-87.81C260.93,328.96,261.5,321.11,262.4,310.6z"/>
<path fill="#543753" d="M126.43,323.02l11.27-48.68l-14.37,13.52L126.43,323.02z"/>
<path fill="#FFFFFF" d="M203.57,378.51c-9.03,0-16.67-3.27-22.7-9.68c-9.8-10.45-13.67-27.61-15.17-40.16
	c-1.63-13.59-0.97-24.84-0.93-24.94l0.03-0.3h77.57l0.03,0.3c0,0.1,0.7,11.38-0.93,24.94c-1.5,12.55-5.37,29.71-15.17,40.16
	C220.23,375.23,212.6,378.51,203.57,378.51z M165.4,304.05c-0.1,1.9-0.5,12.29,0.97,24.54c1.5,12.45,5.33,29.45,15,39.76
	c5.9,6.28,13.37,9.48,22.2,9.48c8.83,0,16.3-3.2,22.2-9.48c9.67-10.32,13.5-27.31,15-39.76c1.47-12.25,1.07-22.64,0.97-24.54H165.4z
	"/>
<path fill="#AB8DA8" d="M119.6,210.71c0,0-13.23,10.72-43.73,72.88l41.73,35.92l24-43.77C141.6,275.74,131.27,208.87,119.6,210.71z"
	/>
<path fill="#FFEDE5" d="M126.1,406.79c0,0,18.37,8.51,21.23,7.35c2.87-1.17-0.67-25.34-1.57-25.61
	c-0.9-0.27-16.87-12.52-20.07-11.75c-2.23,0.53-4.3,7.71-4.3,7.71l-34.17-26.01l25.7-42.97l-37.07-31.92c0,0-11.53,20.3-20.77,39.3
	c15.53,36.92,39.87,67.71,70.6,87.97L126.1,406.79z"/>
<path fill="#E0855C" d="M75.87,283.59l37.07,31.92l-3.63,6.08L75.87,283.59z"/>
<path fill="#AB8DA8" d="M271.77,215.91c5.93,2.07,46.43,53.99,46.43,53.99l-44.33,33.79c0,0-16.43-22.64-18-33.79
	C254.3,258.75,259.77,211.74,271.77,215.91z"/>
<path fill="#FFEDE5" d="M318.23,269.93c0,0,43.3,61.23,45.13,74.55c1.83,13.32-3.63,27.88-39.9,27.64
	c-36.27-0.23-67.7-4.01-75.93-2.44c-8.23,1.57-26.6,2.6-29.73,1.7c-3.13-0.9-13.97-26.91-13.43-30.45c0.53-3.54,6-5.61,6-5.61
	s-1.53-2.34-1.1-4.57c0.43-2.24,19.43,2.4,23.6,2.87c4.17,0.47,13.27,10.78,15.6,11.32c2.33,0.53,59.2-8.18,59.2-8.18l-31.77-34.62
	L318.23,269.93z"/>
<path fill="#E0855C" d="M318.23,269.93l-42.33,32.22l4.93,5.41L318.23,269.93z"/>
<path fill="#E0855C" d="M307.67,336.77L329.2,333c0,0-10.3-0.53-12-21.23L307.67,336.77z"/>
<path fill="#E3DCF7" d="M317.17,303.72h-102.5c-0.63,10.68,0.33,19.66,1.9,26.94c5.97,0.9,13.83,2.67,16.33,2.97
	c4.17,0.47,13.27,10.82,15.6,11.32c2.33,0.5,59.17-8.18,59.17-8.18C318.87,331.67,317.17,303.72,317.17,303.72z"/>
<path fill="#3B2645" d="M238.53,334.44c-6.67-3.27-21.97-3.74-21.97-3.74c5.97,0.9,13.83,2.67,16.33,2.97
	c4.17,0.47,13.27,10.82,15.6,11.32c1.03,0.23,12.3-1.3,24.77-3.07C254.33,343.85,245.17,337.67,238.53,334.44z"/>
<path fill="#679E97" d="M214.67,303.72c0,0-8-7.31-6.53-10.18c1.47-2.87,7.73,2.54,7.73,2.54s-5.37-13.76-1.4-15.16
	c3.97-1.4,17.33,14.36,17.33,14.36s-3.03-14.56-1.23-15.16c1.8-0.6,12.27,13.05,12.27,13.05s4.17-17.39,8.5-17.46
	c4.33-0.07,1.23,19.9,1.23,19.9s4.7-15.33,8.27-14.29c3.57,1.04,3.9,17.43,3.9,17.43s0.63-12.55,3.2-13.05
	c2.57-0.5,5.93,18.03,5.93,18.03H214.67z"/>
<path fill="#679E97" d="M277.33,303.72c0,0,5.23-17.26,7.77-17.49c2.53-0.23,2.7,14.26,2.7,14.26s5.13-16.99,6.7-17.43
	c1.57-0.43,2.6,11.32,2.6,11.32s8.2-11.79,10.1-11.35c1.9,0.43-0.6,11.35-0.6,11.35s7.83-11.15,12.97-9.48
	c5.13,1.67-2.33,18.8-2.33,18.8L277.33,303.72z"/>
<path fill="#85CCC6" d="M317.17,303.72c0,0,11.57-10.78,8.53-13.15c-3.03-2.37-16.97,6.58-16.97,6.58s11.4-14.86,10.87-19.3
	c-0.53-4.44-22.17,23.77-22.17,23.77s9.37-20.13,7.03-21.2c-2.33-1.07-11.97,21.67-11.97,21.67s2.87-12.59,0-12.52
	c-2.87,0.07-6.83,13.15-6.83,13.15s-3.97-13.89-6.67-14.42s-2.33,7.91-2.33,7.91s-2.43-6.54-4.87-6.18
	c-2.43,0.37,0.43,9.05,0.43,9.05s-7.47-12.35-11.67-12.55c-4.2-0.2-6.23,13.02-6.23,13.02s1.4-12.72-1.4-13.05
	c-2.8-0.33-4.77,13.76-4.77,13.76s-1.4-20.03-6.97-20.57c-5.57-0.53-1.23,15.32-1.23,15.32s-9.03-6.28-11.23-4.97
	s3.13,13.69,3.13,13.69H317.17z"/>
<path fill="#472938" d="M264.5,288.7C264.47,288.7,264.47,288.7,264.5,288.7c-0.2-0.03-0.33-0.17-0.33-0.37l3.47-35.19
	c0.03-0.17,0.17-0.33,0.37-0.3c0.17,0.03,0.33,0.17,0.3,0.37l-3.47,35.19C264.8,288.56,264.67,288.7,264.5,288.7z"/>
</svg>
