<?xml version="1.0" encoding="utf-8"?>
<!-- Generator: Adobe Illustrator 22.1.0, SVG Export Plug-In . SVG Version: 6.00 Build 0)  -->
<svg version="1.1" id="Слой_1" xmlns="http://www.w3.org/2000/svg" xmlns:xlink="http://www.w3.org/1999/xlink" x="0px" y="0px"
	 viewBox="0 0 375 406" enable-background="new 0 0 375 406" xml:space="preserve">
<g>
	<defs>
		<rect id="SVGID_1_" width="375" height="406"/>
	</defs>
	<clipPath id="SVGID_2_">
		<use xlink:href="#SVGID_1_"  overflow="visible"/>
	</clipPath>
	<g clip-path="url(#SVGID_2_)">
		
			<linearGradient id="SVGID_3_" gradientUnits="userSpaceOnUse" x1="387.2599" y1="298.5756" x2="-109.2851" y2="354.2627" gradientTransform="matrix(1 0 0 -1 0 408)">
			<stop  offset="0" style="stop-color:#92A3FD"/>
			<stop  offset="1" style="stop-color:#9DCEFF"/>
		</linearGradient>
		<path fill="url(#SVGID_3_)" d="M0,214.04c0,0,59.43-123.61,122.03-123.61c62.6,0,106.43,128.3,169.03,128.3
			s55.67-66.79,83.93-66.79V-40H0V214.04z"/>
		<path fill="#FFEDE5" d="M164.57,172.12l-17.2,5.5c0,0-5.23,20.2-3.6,23.79c1.63,3.6,10.83,6.33,15.2,4.17
			c4.37-2.17,19.17-16.33,19.17-16.33L164.57,172.12z"/>
		<path fill="#543753" d="M180.33,152.62c0,0-11,12.46-15.77,19.5l12.27,19.16l12.83-11.53
			C189.67,179.75,187.53,147.86,180.33,152.62z"/>
		<path fill="#E0855C" d="M162.6,172.75v19.2l5.53-14.26l-3.57-5.57L162.6,172.75z"/>
		<path fill="#FFEDE5" d="M161.77,161.62c1.5,0.37,1.97-0.67,3.2,1.3c1.23,1.97,3.83,9.66,3.13,10.83c-0.7,1.17-8.47,8.67-9.03,8.67
			c-0.57,0-2-2.1-1.7-2.83c0,0-1.83,1.1-3.03,0.9c0,0-2.67,1.4-3.73,1.13s-7.3-9.47-5.83-11.9c1.47-2.43,2.4-1.17,3.27-2.13
			c0.87-0.97,2.33-2.57,4.1-2.4c1.77,0.17,2.57-2.57,5.13-2.17C159.83,163.42,158.43,160.79,161.77,161.62z"/>
		<path fill="#472938" d="M157.33,179.92c-0.13,0-0.23-0.07-0.3-0.17c-0.1-0.17-0.03-0.37,0.13-0.43c0.03,0,3.03-1.6,3.83-2.77
			l0.07-0.07c0.03,0,1.73-1.53,2.3-2.7l-2.9-6.57c-0.07-0.17,0-0.37,0.17-0.43c0.17-0.07,0.37,0,0.43,0.17l3,6.83l-0.07,0.13
			c-0.5,1.27-2.23,2.83-2.5,3.07c-0.93,1.3-3.93,2.87-4.07,2.93C157.43,179.88,157.4,179.92,157.33,179.92z"/>
		<path fill="#472938" d="M154.3,180.82c-0.13,0-0.23-0.07-0.3-0.2l-3.7-7.53c-0.07-0.17,0-0.37,0.17-0.43
			c0.17-0.07,0.37,0,0.43,0.17l3.7,7.53c0.07,0.17,0,0.37-0.17,0.43C154.4,180.82,154.37,180.82,154.3,180.82z"/>
		<path fill="#472938" d="M159.3,178.75c-0.13,0-0.23-0.07-0.3-0.2l-3.47-7.46c-0.07-0.17,0-0.37,0.17-0.43
			c0.17-0.07,0.37,0,0.43,0.17l3.47,7.46c0.07,0.17,0,0.37-0.17,0.43C159.4,178.75,159.33,178.75,159.3,178.75z"/>
		<path fill="#472938" d="M159.03,182.75c-0.53,0-1.13-0.83-1.37-1.17c-0.17-0.23-0.53-0.83-0.67-1.43c-0.63,0.3-1.73,0.77-2.63,0.7
			c-0.53,0.27-2.8,1.37-3.87,1.1c-0.6-0.13-1.7-1.6-2.3-2.47c-0.1-0.17-0.07-0.37,0.07-0.47c0.13-0.1,0.37-0.07,0.47,0.07
			c1.03,1.5,1.73,2.13,1.9,2.2c0.7,0.17,2.5-0.6,3.5-1.1l0.1-0.03h0.1c1.1,0.17,2.8-0.87,2.83-0.87l0.87-0.5l-0.37,0.93
			c-0.03,0.1-0.03,0.43,0.3,1.07c0.4,0.73,0.87,1.2,1.07,1.3c0.83-0.47,6.27-5.6,8.2-7.66c-1.8,0.43-3.53-0.33-3.6-0.37
			c-0.17-0.07-0.23-0.27-0.17-0.43c0.07-0.17,0.27-0.23,0.43-0.17c0.03,0,2.2,0.97,4.03,0c0.23-0.13,0.4-0.07,0.47,0.03
			c0.1,0.07,0.17,0.23,0.1,0.4C168.27,174.49,159.83,182.75,159.03,182.75z"/>
		<path fill="#AB8DA8" d="M218.03,132.6l16.7,10.5v21.76c0,0-17.37,36.13-16.7,49.16l-39.77,7.43c0,0-9.53-38.26,2.07-68.85
			l17.73-12.46L218.03,132.6z"/>
		<path fill="#472938" d="M174.6,190.71c-0.17,0-0.33-0.13-0.33-0.33c-0.13-9.23,0.6-17.83,2.23-25.63c0.03-0.17,0.2-0.3,0.4-0.27
			c0.17,0.03,0.3,0.2,0.27,0.4c-1.6,7.73-2.37,16.3-2.2,25.46C174.93,190.55,174.8,190.71,174.6,190.71z"/>
		<path fill="#543753" d="M234.73,164.89l-13.03-1.97l7.3,14.76L234.73,164.89z"/>
		<path fill="#FFEDE5" d="M213.7,119.23l4.33,13.36c-4.63,1.8-8.8,4.6-12.2,8.23c-5.7,6.07-7.9,11.8-11.33,11.8s3.6-12.46,3.6-12.46
			l-0.9-11.66L213.7,119.23z"/>
		<path fill="#E0855C" d="M197.63,134.43c0,0,7.63-1.13,11.53-12.1l-12,6.17L197.63,134.43z"/>
		<path fill="#FFEDE5" d="M191.97,91.94c0,0-7.37,35.92-3.53,38.39c3.83,2.47,18.97,0.33,24.6-9.66
			C218.67,110.67,211.6,91.94,191.97,91.94z"/>
		<path fill="#FFEDE5" d="M189.6,104.7c0,0-6.93,8.97-6.23,9.83c0.7,0.87,4.5,2.1,4.5,2.1L189.6,104.7z"/>
		<path fill="#3B2645" d="M210.4,115.23c0,0-3.47-1.73-1.23-9.3c0,0-4.5-7.96-7.43-9.26c-2.93-1.3-10.4-1.7-10.4-1.7
			s-1.5-10.5,1-11.6c2.5-1.1,25.63-0.47,30,7.7c1.47,2.77,0.53,4.43,0.53,4.43s2.47,3.27,2.03,6.07c-0.43,2.8-7.23,13.16-7.23,13.16
			L210.4,115.23z"/>
		<path fill="#FFEDE5" d="M217.32,117.96c2.32-2.32,2.97-5.42,1.46-6.93c-1.51-1.51-4.61-0.86-6.93,1.46
			c-2.32,2.32-2.97,5.42-1.46,6.93C211.9,120.93,215,120.28,217.32,117.96z"/>
		<path fill="#472938" d="M191.37,122.4c-1.57,0-2.97-0.43-3.07-0.47c-0.17-0.07-0.27-0.23-0.2-0.43c0.07-0.17,0.23-0.27,0.43-0.2
			c0.03,0,4.57,1.47,6.13-0.93c0.1-0.17,0.3-0.2,0.47-0.1c0.17,0.1,0.2,0.3,0.1,0.47C194.33,122.03,192.8,122.4,191.37,122.4z"/>
		<path fill="#472938" d="M212.17,116.76c-0.1,0-0.23-0.07-0.27-0.17c-0.1-0.17-0.07-0.37,0.1-0.47l2.7-1.7
			c0.17-0.1,0.37-0.07,0.47,0.1c0.1,0.17,0.07,0.37-0.1,0.47l-2.7,1.7C212.3,116.73,212.23,116.76,212.17,116.76z"/>
		<path fill="#3B2645" d="M194.2,104.73c0.7,0.17,1.13,0.87,0.97,1.53l-0.2,0.9c-0.17,0.7-0.87,1.13-1.53,0.97
			c-0.7-0.17-1.13-0.87-0.97-1.53l0.2-0.9C192.83,105,193.5,104.57,194.2,104.73z"/>
		<path fill="#3B2645" d="M192.8,101.24c0,0,4.4-0.3,5.53,3.3c0,0-0.13-3.77-2.9-4.33C192.67,99.64,191.77,101.07,192.8,101.24z"/>
		<path fill="#AB8DA8" d="M223.97,136.33c-14.97-2.53-5.03,29.03-5.03,29.03l22.4,6.76l8.3-25.49
			C236.6,140.89,223.97,136.33,223.97,136.33z"/>
		<path fill="#FFEDE5" d="M244.83,210.91c0,0-7.9,2.77-8.67,4c-0.77,1.23-0.03,5.6-0.03,5.6c-0.83,1.33-1.5,2.73-1.97,4.23
			c-0.67,2.23,1,1.57,2.97,3.83c1.97,2.27,3.57,1.7,4.7,2.73c1.13,1.03,3.43,0.7,4.33,1.13c0.9,0.43,2.6,1.9,3.63,1.83
			c1.03-0.07,3.47-3.6,5.47-8.03c2-4.43,1.63-8.03,2.53-13.36c0.9-5.33,21.93-39.63,19.47-48.92c-1.23-4.63-14.63-11.56-27.67-17.33
			l-8.3,25.49l11.87,3.6L244.83,210.91z"/>
		<path fill="#472938" d="M256.73,176.99c-0.03,0-0.07,0-0.1,0l-3.57-0.97c-0.17-0.03-0.3-0.23-0.23-0.4
			c0.03-0.17,0.23-0.27,0.4-0.23l3.57,0.97c0.17,0.03,0.3,0.23,0.23,0.4C257.03,176.88,256.9,176.99,256.73,176.99z"/>
		<path fill="#FFEDE5" d="M283.83,296.39l12.97-6.5c0,0-0.3-2.53,2.3-5.4s0.67-9.5-1.77-10.56c-2.43-1.07-3.63-0.33-5.73-3.77
			l-18.77,8.13L283.83,296.39z"/>
		<path fill="#AB8DA8" d="M297.3,273.93c2.43,1.07,4.33,7.7,1.77,10.56c-2.57,2.87-2.3,5.4-2.3,5.4c11.1,1.5,21.53,17.76,23.5,19.6
			c1.97,1.83,9.93,0.53,10.17-0.83c0.23-1.37-17.07-46.99-18.67-47.99s-20.2,9.5-20.2,9.5C293.67,273.6,294.87,272.86,297.3,273.93z
			"/>
		<path fill="#E5E5E5" d="M330.43,308.65c0.2-1.37-17.07-46.99-18.67-47.99c-0.4-0.27-1.87,0.2-3.8,1.03
			c4.6,9.13,16.33,40.59,19.23,48.39C328.93,309.76,330.33,309.22,330.43,308.65z"/>
		<path fill="#3B2645" d="M183.87,248.2c0,0,29.73,77.98,42.27,79.02c12.53,1.03,63.4-33.13,63.4-33.13l-9.47-18.96l-42.97,14.16
			l-10.7-48.96L183.87,248.2z"/>
		<g opacity="0.5">
			<path opacity="0.5" fill="#3B2645" enable-background="new    " d="M226.4,240.37l-42.53,7.83c0,0,7.63,20,16.77,39.86
				l29.3-31.36L226.4,240.37z"/>
		</g>
		<path fill="#FFEDE5" d="M105.73,360.68l-5.73,13.3c0,0,1.87,1.77,1.73,5.6c-0.13,3.83,5.6,7.7,8.17,6.93c2.57-0.77,3-2.1,6.83-0.8
			l9.13-18.33L105.73,360.68z"/>
		<path fill="#E0855C" d="M103.73,365.31c0,0,7.87,8.23,18.17,9.96l3.93-7.9l-20.1-6.73L103.73,365.31z"/>
		<path fill="#3B2645" d="M218.03,214.04c0,0,17.4,20.16,8.33,36.16c-9.07,16-63.1,45.39-66.77,54.42
			c-3.67,9.03-5.73,19.46-13.23,31.99c-7.5,12.53-19.47,34.63-19.47,34.63s-18.1-0.7-24-8.53c0,0,29.2-73.88,36.17-83.45
			c6.97-9.57,39.83-50.09,39.83-50.09l-0.67-7.7L218.03,214.04z"/>
		<path fill="#FFFFFF" d="M118.67,368.61c-0.03,0-0.03,0-0.07,0c-0.07-0.03-0.13-0.13-0.07-0.23c0.33-0.7,32.5-69.22,38.93-77.22
			c2.37-2.97,9.33-9.93,17.37-18c13.77-13.8,30.87-30.96,33.17-36.22c3.6-8.2,1.2-19.73,1.17-19.86c-0.03-0.1,0.03-0.17,0.13-0.2
			c0.1-0.03,0.17,0.03,0.2,0.13c0.03,0.1,2.43,11.76-1.2,20.06c-2.33,5.3-19.47,22.5-33.23,36.32c-8.03,8.07-14.97,15-17.33,17.96
			c-6.4,7.96-38.57,76.45-38.87,77.15C118.8,368.58,118.73,368.61,118.67,368.61z"/>
		<path fill="#FFFFFF" d="M114.1,367.58c-0.03,0-0.03,0-0.07,0c-0.07-0.03-0.13-0.13-0.07-0.23c0.33-0.7,33.7-71.28,37.57-77.22
			c1.97-3.03,13.7-15.43,25.03-27.39c11.2-11.83,22.8-24.09,25.03-27.36c4.47-6.53,3.53-17.13,3.53-17.23c0-0.1,0.07-0.17,0.17-0.17
			c0.1,0,0.17,0.07,0.17,0.17c0,0.1,0.97,10.83-3.6,17.46c-2.27,3.3-13.87,15.56-25.07,27.43c-11.33,11.96-23.03,24.36-25,27.36
			c-3.83,5.93-37.23,76.48-37.57,77.18C114.23,367.54,114.17,367.58,114.1,367.58z"/>
		<path fill="#AB8DA8" d="M109.87,386.54c-2.53,0.73-8.3-3.1-8.17-6.93c0.13-3.83-1.73-5.6-1.73-5.6c-9.47,6-27.9,0.27-30.6,0.13
			c-2.7-0.13-7.97,6-7.23,7.17c0.73,1.17,43.3,24.96,45.2,24.73c1.9-0.23,9.33-20.26,9.33-20.26
			C112.87,384.44,112.43,385.8,109.87,386.54z"/>
		<path fill="#E5E5E5" d="M62.17,381.3c0.7,1.17,43.3,24.96,45.2,24.73c0.47-0.07,1.3-1.33,2.23-3.23
			c-9.4-4.03-38.67-20.56-45.87-24.66C62.6,379.47,61.87,380.81,62.17,381.3z"/>
		<g opacity="0.5">
			<path opacity="0.5" fill="#3B2645" enable-background="new    " d="M178.9,229.17c0,0,19.77-2.47,19.57-2.4
				c-0.2,0.07-19.83-0.87-19.83-0.87L178.9,229.17z"/>
		</g>
	</g>
</g>
</svg>
